<mxfile host="app.diagrams.net" modified="2024-04-30T05:22:29.980Z" agent="Mozilla/5.0 (Windows NT 10.0; Win64; x64) AppleWebKit/537.36 (KHTML, like Gecko) Chrome/124.0.0.0 Safari/537.36" etag="S9ibobsIHAj1R16E_Iaw" version="24.3.1" type="github">
  <diagram name="Page-1" id="21I9_w_j_Az3yXBmFEDj">
    <mxGraphModel dx="1164" dy="686" grid="1" gridSize="10" guides="1" tooltips="1" connect="1" arrows="1" fold="1" page="1" pageScale="1" pageWidth="850" pageHeight="1100" math="0" shadow="0">
      <root>
        <mxCell id="0" />
        <mxCell id="1" parent="0" />
        <mxCell id="a6qCzwojAcqQiAvbhBuA-1" value="LoRa Mesh network" style="ellipse;shape=cloud;whiteSpace=wrap;html=1;fontStyle=1" vertex="1" parent="1">
          <mxGeometry x="610" y="210" width="190" height="140" as="geometry" />
        </mxCell>
        <mxCell id="a6qCzwojAcqQiAvbhBuA-4" value="Customer&#xa;gateway" style="sketch=0;outlineConnect=0;fontColor=#232F3E;gradientColor=none;strokeColor=#232F3E;fillColor=#ffffff;dashed=0;verticalLabelPosition=bottom;verticalAlign=top;align=center;html=1;fontSize=12;fontStyle=1;aspect=fixed;shape=mxgraph.aws4.resourceIcon;resIcon=mxgraph.aws4.customer_gateway;" vertex="1" parent="1">
          <mxGeometry x="430" y="236.5" width="105" height="105" as="geometry" />
        </mxCell>
        <mxCell id="a6qCzwojAcqQiAvbhBuA-8" style="edgeStyle=orthogonalEdgeStyle;rounded=0;orthogonalLoop=1;jettySize=auto;html=1;fontStyle=1" edge="1" parent="1" target="a6qCzwojAcqQiAvbhBuA-6">
          <mxGeometry relative="1" as="geometry">
            <mxPoint x="163.34000000000003" y="289" as="sourcePoint" />
          </mxGeometry>
        </mxCell>
        <mxCell id="a6qCzwojAcqQiAvbhBuA-9" value="" style="edgeStyle=orthogonalEdgeStyle;rounded=0;orthogonalLoop=1;jettySize=auto;html=1;fontStyle=1;strokeWidth=2;" edge="1" parent="1" source="a6qCzwojAcqQiAvbhBuA-6">
          <mxGeometry relative="1" as="geometry">
            <mxPoint x="163.34000000000003" y="288.9999999999999" as="targetPoint" />
          </mxGeometry>
        </mxCell>
        <mxCell id="a6qCzwojAcqQiAvbhBuA-10" style="edgeStyle=orthogonalEdgeStyle;rounded=0;orthogonalLoop=1;jettySize=auto;html=1;startArrow=block;startFill=1;fontStyle=1;strokeWidth=2;" edge="1" parent="1" source="a6qCzwojAcqQiAvbhBuA-6" target="a6qCzwojAcqQiAvbhBuA-4">
          <mxGeometry relative="1" as="geometry" />
        </mxCell>
        <mxCell id="a6qCzwojAcqQiAvbhBuA-6" value="" style="sketch=0;outlineConnect=0;fontColor=#232F3E;gradientColor=none;fillColor=#7AA116;strokeColor=none;dashed=0;verticalLabelPosition=bottom;verticalAlign=top;align=center;html=1;fontSize=12;fontStyle=1;aspect=fixed;pointerEvents=1;shape=mxgraph.aws4.mqtt_protocol;" vertex="1" parent="1">
          <mxGeometry x="270" y="250" width="78" height="78" as="geometry" />
        </mxCell>
        <mxCell id="a6qCzwojAcqQiAvbhBuA-7" value="MQTT Broker" style="text;html=1;align=center;verticalAlign=middle;resizable=0;points=[];autosize=1;strokeColor=none;fillColor=none;fontStyle=1" vertex="1" parent="1">
          <mxGeometry x="259" y="328" width="100" height="30" as="geometry" />
        </mxCell>
        <mxCell id="a6qCzwojAcqQiAvbhBuA-11" style="edgeStyle=orthogonalEdgeStyle;rounded=0;orthogonalLoop=1;jettySize=auto;html=1;startArrow=block;startFill=1;shape=flexArrow;width=19;startSize=7.16;fontStyle=1" edge="1" parent="1" source="a6qCzwojAcqQiAvbhBuA-4">
          <mxGeometry relative="1" as="geometry">
            <mxPoint x="610" y="288" as="targetPoint" />
          </mxGeometry>
        </mxCell>
        <mxCell id="a6qCzwojAcqQiAvbhBuA-13" value="LoRa&lt;br&gt;Medium" style="text;html=1;align=center;verticalAlign=middle;whiteSpace=wrap;rounded=0;fontStyle=1" vertex="1" parent="1">
          <mxGeometry x="550" y="320" width="60" height="30" as="geometry" />
        </mxCell>
        <mxCell id="a6qCzwojAcqQiAvbhBuA-14" value="WiFi" style="text;html=1;align=center;verticalAlign=middle;whiteSpace=wrap;rounded=0;fontStyle=1" vertex="1" parent="1">
          <mxGeometry x="359" y="298" width="60" height="30" as="geometry" />
        </mxCell>
        <mxCell id="a6qCzwojAcqQiAvbhBuA-15" value="" style="sketch=0;outlineConnect=0;fontColor=#232F3E;gradientColor=none;fillColor=#8C4FFF;strokeColor=none;dashed=0;verticalLabelPosition=bottom;verticalAlign=top;align=center;html=1;fontSize=12;fontStyle=0;aspect=fixed;pointerEvents=1;shape=mxgraph.aws4.opensearch_dashboards;" vertex="1" parent="1">
          <mxGeometry x="60" y="251.94" width="98" height="74.13" as="geometry" />
        </mxCell>
        <mxCell id="a6qCzwojAcqQiAvbhBuA-16" value="Dashboard" style="text;html=1;align=center;verticalAlign=middle;whiteSpace=wrap;rounded=0;fontStyle=1" vertex="1" parent="1">
          <mxGeometry x="73.5" y="328" width="71" height="30" as="geometry" />
        </mxCell>
      </root>
    </mxGraphModel>
  </diagram>
</mxfile>
